<?xml version="1.0" encoding="UTF-8" standalone="no"?>
<!-- Created with Inkscape (http://www.inkscape.org/) -->

<svg
   xmlns:dc="http://purl.org/dc/elements/1.1/"
   xmlns:cc="http://creativecommons.org/ns#"
   xmlns:rdf="http://www.w3.org/1999/02/22-rdf-syntax-ns#"
   xmlns:svg="http://www.w3.org/2000/svg"
   xmlns="http://www.w3.org/2000/svg"
   xmlns:sodipodi="http://sodipodi.sourceforge.net/DTD/sodipodi-0.dtd"
   xmlns:inkscape="http://www.inkscape.org/namespaces/inkscape"
   width="367.14001"
   height="367.13998"
   viewBox="0 0 367.14001 367.13998"
   version="1.1"
   id="svg2216"
   inkscape:version="0.92.3 (2405546, 2018-03-11)"
   sodipodi:docname="circle.svg">
  <defs
     id="defs2210" />
  <sodipodi:namedview
     id="base"
     pagecolor="#ffffff"
     bordercolor="#666666"
     borderopacity="1.0"
     inkscape:pageopacity="0.0"
     inkscape:pageshadow="2"
     inkscape:zoom="1.4"
     inkscape:cx="128.40776"
     inkscape:cy="196.06567"
     inkscape:document-units="px"
     inkscape:current-layer="layer1"
     showgrid="false"
     units="px"
     inkscape:window-width="1280"
     inkscape:window-height="737"
     inkscape:window-x="-8"
     inkscape:window-y="-8"
     inkscape:window-maximized="1"
     fit-margin-top="10"
     fit-margin-left="10"
     fit-margin-bottom="10"
     fit-margin-right="10"
     inkscape:showpageshadow="false"
     scale-x="1" />
  <metadata
     id="metadata2213">
    <rdf:RDF>
      <cc:Work
         rdf:about="">
        <dc:format>image/svg+xml</dc:format>
        <dc:type
           rdf:resource="http://purl.org/dc/dcmitype/StillImage" />
        <dc:title></dc:title>
      </cc:Work>
    </rdf:RDF>
  </metadata>
  <g
     inkscape:label="Layer 1"
     inkscape:groupmode="layer"
     id="layer1"
     transform="translate(283.10502,-116.23671)">
    

<g
       aria-label="b"
       style="font-style:normal;font-variant:normal;font-weight:normal;font-stretch:normal;font-size:5.33333349px;line-height:1.25;font-family:'Open Sans';-inkscape-font-specification:'Open Sans, Normal';font-variant-ligatures:normal;font-variant-caps:normal;font-variant-numeric:normal;font-feature-settings:normal;text-align:start;letter-spacing:0px;word-spacing:0px;writing-mode:lr-tb;text-anchor:start;fill:#000000;fill-opacity:1;stroke:none"
       id="text824">
      <path
         d="m -144.77641,394.15924 c -47.2544,-15.27985 -59.11686,-50.39199 -61.79698,-77.05215 0,-1.26953 0.84635,-2.398 2.53907,-3.38541 16.11718,1.13265 28.98418,0.69775 48.15615,1.4002 3.1033,3.1033 11.07903,12.56464 11.78432,15.52688 0,0.14106 0.44591,32.75961 -0.68256,63.51048 z m 0.41684,-193.72049 c 1.83377,1.83377 0.68888,28.1538 0.68888,32.66769 0,1.26953 -0.0705,3.24436 -0.21159,5.92448 -0.14106,2.82118 -0.21159,4.86654 -0.21159,6.13607 v 23.06315 c -7.05295,9.45095 -13.07044,15.52548 -14.48102,16.79501 -12.27214,-0.98741 -48.98594,-1.98381 -47.99852,-1.56064 -6.6056,-27.37101 42.19192,-80.04264 62.21384,-83.02576 z m 29.8881,130.21001 c -0.7053,-2.82118 -3.94966,-8.11089 -9.73308,-15.86914 -5.36024,-7.19401 -7.96983,-12.55426 -7.82877,-16.08073 0,-3.94965 2.68012,-9.23937 8.04036,-15.86914 5.64236,-7.05295 8.81619,-12.4132 9.52149,-16.08073 v -80.61524 c 0,-13.96484 1.609,-23.065 1.43414,-26.31836 -43.35641,4.76468 -78.52289,27.9962 -99.03738,54.50615 -17.35026,24.68533 -27.23788,51.85872 -27.52,84.02018 -0.14106,32.44358 8.97731,60.03195 29.72205,88.11175 30.44582,34.57981 65.81683,49.23897 96.57514,50.82007 0.12229,-6.33286 0.73012,-22.47445 0.0887,-50.82007 z"
         style="font-style:normal;font-variant:normal;font-weight:normal;font-stretch:normal;font-size:433.33334351px;font-family:'MONOGRAMOS left';-inkscape-font-specification:'MONOGRAMOS left';fill:#000000;fill-opacity:1"
         id="path822"
         inkscape:connector-curvature="0"
         sodipodi:nodetypes="cccccccscscccccccccscccccsc" />
    </g>



<g
       aria-label="g"
       style="font-style:normal;font-variant:normal;font-weight:normal;font-stretch:normal;font-size:5.33333349px;line-height:1.25;font-family:'Open Sans';-inkscape-font-specification:'Open Sans, Normal';font-variant-ligatures:normal;font-variant-caps:normal;font-variant-numeric:normal;font-feature-settings:normal;text-align:start;letter-spacing:0px;word-spacing:0px;writing-mode:lr-tb;text-anchor:start;fill:#000000;fill-opacity:1;stroke:none"
       id="text828">
      <path
         d="m 36.734553,284.05337 c -14.388021,-1.41059 -36.99032832,-1.41059 -51.37835,0 -1.551649,9.45095 -1.551649,18.83138 0,28.14128 0.846355,0.56423 11.599703,0.77582 15.8314739,0.63476 3.6675348,0 5.6423612,0.84636 5.9244793,2.53907 -0.4231771,9.59201 -3.8791233,21.01779 -10.3678388,34.27734 -7.3350694,15.23437 -43.3255834,44.07594 -51.5429694,43.25966 -1.692708,-66.29775 -3.74233,-150.71688 -1.062209,-187.8154 29.720179,0.93344 48.3334854,27.0538 56.6253608,46.16707 5.9244793,0.84635 15.2343752,0.63476 27.9296882,-0.63477 -12.977431,-42.74089 -58.834148,-84.0318 -116.097087,-90.41144 0.412931,89.93623 0.349783,187.20999 0.349783,277.13903 47.052577,-2.73842 91.1941325,-38.6006 110.034413,-75.22042 11.143663,-23.55686 15.728082,-49.58225 13.753256,-78.07618 z"
         style="font-style:normal;font-variant:normal;font-weight:normal;font-stretch:normal;font-size:433.33334351px;font-family:'MONOGRAMOS right';-inkscape-font-specification:'MONOGRAMOS right';fill:#000000;fill-opacity:1"
         id="path822"
         inkscape:connector-curvature="0"
         sodipodi:nodetypes="cccccccccccccc" />
    </g>




    <path
       style="fill:#000000;fill-opacity:1;fill-rule:evenodd;stroke-width:1.06112659"
       d="m -99.535018,126.23671 a 173.57001,173.57001 0 0 0 -173.570002,173.56998 173.57001,173.57001 0 0 0 173.570002,173.56999 173.57001,173.57001 0 0 0 173.57,-173.56999 173.57001,173.57001 0 0 0 -173.57,-173.56998 z m 0,10.84808 A 162.72188,162.72188 0 0 1 63.186852,299.80669 162.72188,162.72188 0 0 1 -99.535018,462.52856 162.72188,162.72188 0 0 1 -262.25689,299.80669 162.72188,162.72188 0 0 1 -99.535018,137.08479 Z"
       id="path12"
       inkscape:connector-curvature="0" />
  </g>
</svg>
