<?xml version="1.0" encoding="UTF-8" standalone="no"?>
<!-- Created with Inkscape (http://www.inkscape.org/) -->

<svg
   xmlns:dc="http://purl.org/dc/elements/1.1/"
   xmlns:cc="http://creativecommons.org/ns#"
   xmlns:rdf="http://www.w3.org/1999/02/22-rdf-syntax-ns#"
   xmlns:svg="http://www.w3.org/2000/svg"
   xmlns="http://www.w3.org/2000/svg"
   xmlns:sodipodi="http://sodipodi.sourceforge.net/DTD/sodipodi-0.dtd"
   xmlns:inkscape="http://www.inkscape.org/namespaces/inkscape"
   width="367.14001"
   height="367.13998"
   viewBox="0 0 367.14001 367.13998"
   version="1.1"
   id="svg2216"
   inkscape:version="0.92.3 (2405546, 2018-03-11)"
   sodipodi:docname="circle.svg">
  <defs
     id="defs2210" />
  <sodipodi:namedview
     id="base"
     pagecolor="#ffffff"
     bordercolor="#666666"
     borderopacity="1.0"
     inkscape:pageopacity="0.0"
     inkscape:pageshadow="2"
     inkscape:zoom="1.4"
     inkscape:cx="128.40776"
     inkscape:cy="196.06567"
     inkscape:document-units="px"
     inkscape:current-layer="layer1"
     showgrid="false"
     units="px"
     inkscape:window-width="1280"
     inkscape:window-height="737"
     inkscape:window-x="-8"
     inkscape:window-y="-8"
     inkscape:window-maximized="1"
     fit-margin-top="10"
     fit-margin-left="10"
     fit-margin-bottom="10"
     fit-margin-right="10"
     inkscape:showpageshadow="false"
     scale-x="1" />
  <metadata
     id="metadata2213">
    <rdf:RDF>
      <cc:Work
         rdf:about="">
        <dc:format>image/svg+xml</dc:format>
        <dc:type
           rdf:resource="http://purl.org/dc/dcmitype/StillImage" />
        <dc:title></dc:title>
      </cc:Work>
    </rdf:RDF>
  </metadata>
  <g
     inkscape:label="Layer 1"
     inkscape:groupmode="layer"
     id="layer1"
     transform="translate(283.10502,-116.23671)">
    

<g
       aria-label="B"
       transform="scale(0.83731883,1.1942882)"
       style="font-style:normal;font-variant:normal;font-weight:normal;font-stretch:normal;font-size:66.7964859px;line-height:1.25;font-family:'Open Sans';-inkscape-font-specification:'Open Sans, Normal';font-variant-ligatures:normal;font-variant-caps:normal;font-variant-numeric:normal;font-feature-settings:normal;text-align:start;letter-spacing:0px;word-spacing:0px;writing-mode:lr-tb;text-anchor:start;fill:#000000;fill-opacity:1;stroke:none;stroke-width:1.7891916"
       id="text839">
      <path
         style="font-style:normal;font-variant:normal;font-weight:normal;font-stretch:normal;font-size:171.7624054px;font-family:'Liberation Serif';-inkscape-font-specification:'Liberation Serif';fill:#000000;fill-opacity:1;stroke-width:1.7891916"
         d="M 36.578125 82.037109 L 36.578125 89.349609 L 48.726562 91.953125 L 48.726562 206.33984 L 36.578125 209.04492 L 36.578125 216.35547 L 54.976562 216.35547 C 59.658202 216.35547 64.762776 216.45593 70.287109 216.65625 C 75.811438 216.85658 81.382032 216.95703 87 216.95703 C 93.975636 216.95703 99.920217 215.98922 104.83594 214.05273 C 109.79848 212.04948 113.84963 209.31216 116.98633 205.83984 C 120.16984 202.30075 122.4862 198.09335 123.9375 193.21875 C 125.38881 188.34414 126.11523 183.00085 126.11523 177.19141 C 126.11523 172.71746 125.60027 168.6453 124.57031 164.97266 C 123.54035 161.23324 121.92498 157.96081 119.72461 155.15625 C 117.57106 152.35169 114.80828 150.04903 111.4375 148.24609 C 108.11353 146.44316 104.13482 145.20681 99.5 144.53906 C 102.0749 143.73776 104.53223 142.46858 106.87305 140.73242 C 109.21387 138.92949 111.27371 136.6925 113.05273 134.02148 C 114.83176 131.2837 116.23567 128.11173 117.26562 124.50586 C 118.3424 120.89999 118.88086 116.86067 118.88086 112.38672 C 118.88086 107.64567 118.27387 103.40544 117.05664 99.666016 C 115.88624 95.926604 113.87142 92.754632 111.01562 90.150391 C 108.20664 87.54615 104.46288 85.542902 99.78125 84.140625 C 95.099611 82.73834 89.270558 82.037109 82.294922 82.037109 L 36.578125 82.037109 z M 70.847656 93.054688 L 80.609375 93.054688 C 83.371539 93.054688 85.71139 93.489342 87.630859 94.357422 C 89.597146 95.225502 91.189023 96.595138 92.40625 98.464844 C 93.623477 100.26778 94.49088 102.57044 95.005859 105.375 C 95.567656 108.11279 95.847656 111.38521 95.847656 115.19141 C 95.847656 119.06438 95.614646 122.53576 95.146484 125.60742 C 94.725134 128.61231 93.951718 131.18351 92.828125 133.32031 C 91.704532 135.39035 90.183142 136.99372 88.263672 138.12891 C 86.391014 139.26409 84.027674 139.83203 81.171875 139.83203 L 70.847656 139.83203 L 70.847656 93.054688 z M 150.625 131.51953 L 138.7832 149.46484 L 150.625 167.41016 L 162.4668 149.46484 L 150.625 131.51953 z M 70.847656 150.84961 L 82.996094 150.84961 C 90.065365 150.84961 95.146449 153.01898 98.236328 157.35938 C 101.37302 161.69977 102.94141 168.31028 102.94141 177.19141 C 102.94141 181.66535 102.63595 185.67185 102.02734 189.21094 C 101.46555 192.75003 100.55311 195.75587 99.289062 198.22656 C 98.025018 200.69725 96.36265 202.60004 94.302734 203.93555 C 92.242813 205.27106 89.738496 205.93945 86.789062 205.93945 L 82.576172 205.93945 C 80.797148 205.87268 79.0408 205.77223 77.308594 205.63867 C 75.248672 205.5719 73.094841 205.47144 70.847656 205.33789 L 70.847656 150.84961 z "
         transform="matrix(1.1942882,0,0,0.83731883,-299.72285,124.83788)"
         id="path831" />
    </g>



<g
       aria-label="G"
       transform="scale(0.83731883,1.1942882)"
       style="font-style:normal;font-variant:normal;font-weight:normal;font-stretch:normal;font-size:66.79557037px;line-height:1.25;font-family:'Open Sans';-inkscape-font-specification:'Open Sans, Normal';font-variant-ligatures:normal;font-variant-caps:normal;font-variant-numeric:normal;font-feature-settings:normal;text-align:start;letter-spacing:0px;word-spacing:0px;writing-mode:lr-tb;text-anchor:start;fill:#000000;fill-opacity:1;stroke:none;stroke-width:1.78916705"
       id="text837">
      <path
         d="m 17.016292,300.25762 q -4.864298,1.59348 -10.9027366,3.01922 -5.95457174,1.34188 -12.4123467,2.34828 -6.4577747,1.00641 -12.9994167,1.59348 -6.541643,0.58707 -12.580081,0.58707 -13.334886,0 -24.489225,-3.60629 -11.154339,-3.69016 -19.20559,-10.81887 -7.967385,-7.21258 -12.496214,-17.77985 -4.444962,-10.56727 -4.444962,-24.40535 0,-14.76063 4.361095,-25.74724 4.361094,-11.07047 12.412346,-18.36692 8.135119,-7.38031 19.624927,-10.9866 11.573674,-3.69016 25.831099,-3.69016 7.296447,0 13.251019,0.58707 6.038439,0.58707 11.238206,1.59348 5.1997668,1.00641 9.8124632,2.34828 4.6126964,1.25801 9.3092598,2.59989 v 25.8311 H 5.7780865 l -2.0128129,-14.5929 q -2.93535228,-2.01281 -6.457775,-3.77402 -3.5224227,-1.76121 -7.5480486,-3.01922 -3.941759,-1.34188 -8.302854,-2.01281 -4.277227,-0.75481 -8.722189,-0.75481 -8.554455,0 -15.431566,2.43215 -6.877111,2.34828 -11.825276,8.13512 -4.864298,5.70297 -7.548049,15.3477 -2.599883,9.56086 -2.599883,23.90215 0,9.7286 1.509609,17.02504 1.50961,7.29645 4.109493,12.66395 2.599884,5.3675 6.122307,8.97379 3.606289,3.52243 7.631915,5.61911 4.109494,2.09668 8.554456,3.01922 4.444961,0.83867 8.806056,0.83867 4.780431,0 9.644729,-0.75481 4.864298,-0.83867 8.889924,-2.18054 v -32.54048 l -14.42516,-2.18055 v -6.20617 h 51.829934 v 6.20617 l -10.986604,2.18055 z"
         style="font-style:normal;font-variant:normal;font-weight:normal;font-stretch:normal;font-size:171.76004028px;font-family:'Liberation Serif';-inkscape-font-specification:'Liberation Serif';fill:#000000;fill-opacity:1;stroke-width:1.78916705"
         id="path827" />
    </g>




    <path
       style="fill:#5e5a5a;fill-opacity:1;fill-rule:evenodd;stroke-width:1.06112659"
       d="m -99.535018,126.23671 a 173.57001,173.57001 0 0 0 -173.570002,173.56998 173.57001,173.57001 0 0 0 173.570002,173.56999 173.57001,173.57001 0 0 0 173.57,-173.56999 173.57001,173.57001 0 0 0 -173.57,-173.56998 z m 0,10.84808 A 162.72188,162.72188 0 0 1 63.186852,299.80669 162.72188,162.72188 0 0 1 -99.535018,462.52856 162.72188,162.72188 0 0 1 -262.25689,299.80669 162.72188,162.72188 0 0 1 -99.535018,137.08479 Z"
       id="path12"
       inkscape:connector-curvature="0" />
  </g>
</svg>
