<?xml version="1.0" standalone="no"?>
<!DOCTYPE svg PUBLIC "-//W3C//DTD SVG 20010904//EN"
 "http://www.w3.org/TR/2001/REC-SVG-20010904/DTD/svg10.dtd">
<svg version="1.0" xmlns="http://www.w3.org/2000/svg"
 width="91.000000pt" height="100.000000pt" viewBox="0 0 91.000000 100.000000"
 preserveAspectRatio="xMidYMid meet">

<g transform="translate(0.000000,100.000000) scale(0.100000,-0.100000)"
fill="#000000" stroke="none">
<path d="M360 821 c-89 -28 -169 -96 -209 -181 -34 -73 -36 -191 -5 -261 48
-104 128 -165 257 -193 l27 -6 0 174 c0 122 -3 175 -11 178 -9 3 -9 9 0 25 6
13 11 72 11 147 0 124 0 126 -22 125 -13 0 -34 -4 -48 -8z m20 -141 c0 -104
-19 -134 -116 -189 -40 -23 -75 -41 -79 -41 -15 0 2 135 23 175 23 46 73 97
117 119 52 27 55 23 55 -64z m-4 -427 c-3 -3 -25 5 -50 17 -44 21 -116 92
-116 114 0 6 37 32 83 58 l82 48 3 -116 c1 -64 0 -119 -2 -121z"/>
<path d="M460 506 l0 -325 38 6 c135 19 255 147 269 286 5 50 4 53 -27 70 -32
17 -33 17 -86 -14 -59 -33 -61 -36 -40 -64 13 -18 14 -18 48 3 44 27 48 27 48
0 0 -39 -45 -122 -85 -157 -33 -28 -91 -61 -110 -61 -3 0 -5 115 -5 255 0 241
1 255 18 255 39 0 142 -94 163 -147 6 -17 16 -23 39 -23 l30 0 -15 38 c-38 90
-107 155 -198 186 -95 32 -87 60 -87 -308z"/>
</g>
</svg>
